<?xml version="1.0" encoding="utf-8"?>
<!-- Generator: Adobe Illustrator 20.1.0, SVG Export Plug-In . SVG Version: 6.00 Build 0)  -->
<svg version="1.1" id="Layer_1" xmlns="http://www.w3.org/2000/svg" xmlns:xlink="http://www.w3.org/1999/xlink" x="0px" y="0px"
	 viewBox="0 0 140 140" style="enable-background:new 0 0 140 140;" xml:space="preserve">
<style type="text/css">
	.st0{opacity:0.1;fill:#24221C;}
	.st1{opacity:0.1;fill:#FFFFFF;}
	.st2{opacity:0.1;fill:#242224;}
	.st3{opacity:0.1;}
	.st4{fill:#24221C;}
</style>
<path class="st0" d="M46.5,43.6c-1.2,0-2.1-0.4-2.9-1.2c-0.5-0.5-0.9-1.2-1.1-1.9c-0.2-0.5-0.2-0.5-0.7-0.5c-0.9,0-1.7,0-2.6,0
	c-2.4,0-4.8,0-7.2,0c-1.2,0-2.4,0-3.5,0c-0.1,0-0.2,0-0.3,0.1c-0.6,0.7-1.1,1.5-1.7,2.2c-0.3,0.3-0.5,0.7-0.9,0.9
	c-0.3,0.1-0.6,0.3-1,0.3c-0.8,0.1-1.7,0-2.5-0.4c-0.9-0.4-1.7-1-2-2C19.5,40,19.7,39,20.4,38c0.4-0.5,0.8-0.9,1.4-1.3
	c0.4-0.3,0.4-0.6,0.2-1c-0.4-0.7-0.9-1.3-1.3-2c-0.5-0.8-0.8-1.6-0.5-2.6c0.1-0.3,0.3-0.7,0.5-0.9c0.5-0.6,1.1-1,1.8-1.3
	c0.9-0.4,1.9-0.2,2.8,0.5c0.8,0.8,1.4,1.7,1.9,2.7c0.2,0.3,0.4,0.6,0.5,0.9c0.1,0.2,0.2,0.2,0.4,0.2c0,0,0,0,0,0c3.4,0,6.8,0,10.2,0
	c1.2,0,2.4,0,3.6,0c0.3,0,0.6-0.1,0.7-0.4c0.3-0.5,0.6-1,0.9-1.6c0.5-0.8,1-1.5,1.7-2c0.8-0.5,1.6-0.6,2.5-0.3
	c0.3,0.1,0.5,0.2,0.8,0.4c0.7,0.5,1.1,1.1,1.4,1.9c0.4,1,0.4,1.9-0.1,2.9c-0.2,0.4-0.6,0.7-0.9,1c-0.3,0.2-0.5,0.4-0.8,0.7
	c-0.2,0.2-0.2,0.4,0,0.5c0.3,0.2,0.6,0.3,0.8,0.5c0.6,0.4,1,1.1,1.1,1.8c0.2,1.3-0.2,2.4-0.9,3.4C48.5,43.2,47.6,43.7,46.5,43.6z"/>
<path class="st0" d="M116.4,109.6c-1.2,0-2.1-0.4-2.9-1.2c-0.5-0.5-0.8-1.2-1.1-1.9c-0.2-0.4-0.2-0.5-0.7-0.5c-0.9,0-1.7,0-2.6,0
	c-2.4,0-4.8,0-7.2,0c-1.2,0-2.3,0-3.5,0c-0.1,0-0.2,0-0.3,0.1c-0.6,0.7-1.1,1.4-1.7,2.2c-0.3,0.3-0.5,0.7-0.9,0.9
	c-0.3,0.1-0.6,0.3-1,0.3c-0.8,0.1-1.7,0-2.4-0.4c-0.9-0.4-1.6-1-2-2c-0.4-1.1-0.3-2.2,0.5-3.2c0.4-0.5,0.8-0.9,1.3-1.3
	c0.4-0.3,0.4-0.6,0.2-1c-0.4-0.7-0.9-1.3-1.3-2c-0.5-0.8-0.8-1.6-0.5-2.6c0.1-0.3,0.3-0.7,0.5-0.9c0.5-0.6,1.1-1,1.8-1.3
	c0.9-0.4,1.9-0.2,2.7,0.5c0.8,0.7,1.4,1.7,1.8,2.6c0.2,0.3,0.4,0.6,0.5,0.9c0.1,0.2,0.2,0.2,0.4,0.2c0,0,0,0,0,0c3.4,0,6.7,0,10.1,0
	c1.2,0,2.4,0,3.6,0c0.3,0,0.5-0.1,0.7-0.4c0.3-0.5,0.6-1,0.9-1.5c0.5-0.8,1-1.5,1.7-2c0.8-0.5,1.6-0.6,2.5-0.3
	c0.3,0.1,0.5,0.2,0.8,0.4c0.7,0.5,1.1,1.1,1.4,1.9c0.4,1,0.4,1.9-0.1,2.8c-0.2,0.4-0.6,0.7-0.9,1c-0.3,0.2-0.5,0.4-0.8,0.7
	c-0.2,0.2-0.2,0.4,0,0.5c0.3,0.2,0.5,0.3,0.8,0.5c0.6,0.4,1,1.1,1.1,1.8c0.2,1.3-0.2,2.4-0.9,3.4
	C118.4,109.1,117.5,109.6,116.4,109.6z"/>
<path class="st1" d="M41,92.3c-0.2,0-0.3,0-0.2,0.2c0,0-0.1,0.1-0.1,0.1c0,0-0.1-0.1-0.1-0.1c0-0.2,0.1-0.4,0.3-0.3
	C40.9,92.2,40.9,92.2,41,92.3C41,92.3,41,92.3,41,92.3z"/>
<polygon class="st2" points="40.2,92.2 40.3,92.6 40.8,92.7 41.3,92.2 40.7,92.1 "/>
<g class="st3">
	<g>
		<g>
			<path class="st4" d="M29.9,113.3c0.2-3.2,1.3-6.3,3.3-9c1.5-2,3.6-2.5,5.9-1.9c2.7,0.6,5.2,1.8,7.2,3.8c1.8,1.7,1.9,3-0.3,5
				c-0.7,0.6-1.8,0.9-2.7,1c-1.9,0.1-3.6,0.6-5.1,1.8c-1.4,1.1-2.9,2.2-4.7,2.6c-0.6,0.1-1.3,0.2-1.9,0.1c-0.9-0.1-1.5-0.8-1.7-2
				C29.9,114.3,29.9,113.9,29.9,113.3z"/>
		</g>
		<g>
			<path class="st4" d="M27.4,92.1c2.1,0,4.4,1.9,5.1,4.3c0.2,0.5,0.3,1.1,0.3,1.7c0.1,2.3-1.6,3.6-3.8,3.2
				c-2.8-0.6-5.2-4.1-4.6-6.8C24.8,93,25.9,92.1,27.4,92.1z"/>
		</g>
		<g>
			<path class="st4" d="M41,93.4c-0.1,1.6-0.4,3.1-1.6,4.3c-1.2,1.2-2.9,1.2-4.1,0c-2.1-2-2.1-6.5,0-8.5c1.2-1.2,2.8-1.2,4.1,0
				C40.6,90.3,40.9,91.8,41,93.4z"/>
		</g>
		<g>
			<path class="st4" d="M24.2,101.7c2.5,0,5,2,5.4,4.4c0.3,1.6-0.7,3-2.3,3.3c-2.7,0.6-5.9-1.6-6.4-4.3
				C20.6,103.1,21.9,101.7,24.2,101.7z"/>
		</g>
		<g>
			<path class="st4" d="M49.3,98.1c0,1.6-0.5,2.9-1.4,4c-1.9,2.1-4.6,1.5-5.4-1.1c-0.6-1.8-0.3-3.6,0.8-5.2c0.9-1.4,2.3-2,3.6-1.7
				c1.2,0.3,2.2,1.6,2.4,3.2C49.2,97.6,49.2,97.9,49.3,98.1z"/>
		</g>
	</g>
</g>
<g class="st3">
	<g>
		<g>
			<path class="st4" d="M99.8,47c0.2-3.2,1.3-6.3,3.3-9c1.5-2,3.6-2.5,5.9-1.9c2.7,0.6,5.2,1.8,7.2,3.8c1.8,1.7,1.9,3-0.3,5
				c-0.7,0.6-1.8,0.9-2.7,1c-1.9,0.1-3.6,0.6-5.1,1.8c-1.4,1.1-2.9,2.2-4.7,2.6c-0.6,0.1-1.3,0.2-1.9,0.1c-0.9-0.1-1.5-0.8-1.7-2
				C99.9,48,99.9,47.6,99.8,47z"/>
		</g>
		<g>
			<path class="st4" d="M97.4,25.8c2.1,0,4.4,1.9,5.1,4.3c0.2,0.5,0.3,1.1,0.3,1.7c0.1,2.3-1.6,3.6-3.8,3.2
				c-2.8-0.6-5.2-4.1-4.6-6.8C94.8,26.7,95.8,25.8,97.4,25.8z"/>
		</g>
		<g>
			<path class="st4" d="M110.9,27.1c-0.1,1.6-0.4,3.1-1.6,4.3c-1.2,1.2-2.9,1.2-4.1,0c-2.1-2-2.1-6.5,0-8.5c1.2-1.2,2.8-1.2,4.1,0
				C110.5,24,110.9,25.5,110.9,27.1z"/>
		</g>
		<g>
			<path class="st4" d="M94.1,35.4c2.5,0,5,2,5.4,4.4c0.3,1.6-0.7,3-2.3,3.3c-2.7,0.6-5.9-1.6-6.4-4.3
				C90.5,36.8,91.9,35.4,94.1,35.4z"/>
		</g>
		<g>
			<path class="st4" d="M119.2,31.8c0,1.6-0.5,2.9-1.4,4c-1.9,2.1-4.6,1.5-5.4-1.1c-0.6-1.8-0.3-3.6,0.8-5.2c0.9-1.4,2.3-2,3.6-1.7
				c1.2,0.3,2.2,1.6,2.4,3.2C119.2,31.3,119.2,31.6,119.2,31.8z"/>
		</g>
	</g>
</g>
</svg>
